<svg xmlns="http://www.w3.org/2000/svg" width="32" height="32" viewBox="0 0 32 32" fill="none">
  <rect width="32" height="32" rx="6" fill="#967969"/>
  <path d="M9 8h8.5c1.5 0 2.7 0.4 3.6 1.2 0.9 0.8 1.4 1.9 1.4 3.3 0 0.9-0.2 1.6-0.6 2.3-0.4 0.7-1 1.2-1.8 1.5v0.2c1 0.3 1.8 0.8 2.3 1.5 0.5 0.7 0.8 1.6 0.8 2.7 0 1.5-0.5 2.7-1.6 3.6-1.1 0.9-2.5 1.3-4.3 1.3H9V8zm4 7.5h3.5c0.7 0 1.2-0.2 1.6-0.5 0.4-0.3 0.6-0.8 0.6-1.4 0-0.6-0.2-1.1-0.6-1.4-0.4-0.3-0.9-0.5-1.7-0.5H13v3.8zm0 3.7v4.1h3.8c0.8 0 1.4-0.2 1.8-0.5 0.4-0.4 0.6-0.9 0.6-1.5 0-0.7-0.2-1.2-0.6-1.5-0.4-0.4-1-0.5-1.8-0.5H13z" fill="white"/>
</svg>
